<svg width="1494" height="353" viewBox="0 0 1494 353" fill="none" xmlns="http://www.w3.org/2000/svg">
<path d="M156.89 111.056H118.064C117.547 107.07 116.485 103.472 114.881 100.262C113.276 97.0527 111.153 94.309 108.513 92.0313C105.873 89.7535 102.741 88.0193 99.1174 86.8286C95.5455 85.5862 91.5852 84.965 87.2367 84.965C79.5234 84.965 72.8712 86.8545 67.2803 90.6335C61.7412 94.4126 57.4703 99.8741 54.4678 107.018C51.517 114.162 50.0417 122.807 50.0417 132.954C50.0417 143.514 51.5429 152.366 54.5455 159.51C57.5997 166.603 61.8706 171.961 67.358 175.584C72.8971 179.156 79.4457 180.942 87.0038 180.942C91.2487 180.942 95.1054 180.399 98.5739 179.312C102.094 178.224 105.174 176.646 107.814 174.575C110.506 172.452 112.706 169.89 114.415 166.887C116.175 163.833 117.391 160.39 118.064 156.56L156.89 156.793C156.217 163.833 154.172 170.77 150.756 177.603C147.391 184.437 142.758 190.675 136.856 196.317C130.955 201.908 123.759 206.36 115.269 209.673C106.831 212.986 97.1502 214.643 86.2273 214.643C71.8359 214.643 58.9457 211.485 47.5568 205.17C36.2197 198.802 27.2639 189.536 20.6894 177.37C14.1149 165.205 10.8277 150.399 10.8277 132.954C10.8277 115.456 14.1667 100.625 20.8447 88.4593C27.5227 76.2939 36.5562 67.0534 47.9451 60.7377C59.334 54.422 72.0947 51.2642 86.2273 51.2642C95.8561 51.2642 104.76 52.6102 112.939 55.3021C121.119 57.9422 128.314 61.8248 134.527 66.9498C140.739 72.023 145.786 78.2611 149.669 85.6638C153.551 93.0666 155.958 101.531 156.89 111.056ZM328.985 132.954C328.985 150.451 325.62 165.283 318.891 177.448C312.161 189.613 303.05 198.854 291.557 205.17C280.117 211.485 267.278 214.643 253.042 214.643C238.754 214.643 225.89 211.459 214.449 205.092C203.009 198.724 193.923 189.484 187.194 177.37C180.516 165.205 177.177 150.399 177.177 132.954C177.177 115.456 180.516 100.625 187.194 88.4593C193.923 76.2939 203.009 67.0534 214.449 60.7377C225.89 54.422 238.754 51.2642 253.042 51.2642C267.278 51.2642 280.117 54.422 291.557 60.7377C303.05 67.0534 312.161 76.2939 318.891 88.4593C325.62 100.625 328.985 115.456 328.985 132.954ZM289.694 132.954C289.694 122.6 288.218 113.851 285.268 106.707C282.369 99.5634 278.175 94.1537 272.688 90.4782C267.252 86.8027 260.704 84.965 253.042 84.965C245.432 84.965 238.884 86.8027 233.396 90.4782C227.909 94.1537 223.69 99.5634 220.739 106.707C217.84 113.851 216.391 122.6 216.391 132.954C216.391 143.307 217.84 152.056 220.739 159.2C223.69 166.344 227.909 171.753 233.396 175.429C238.884 179.104 245.432 180.942 253.042 180.942C260.704 180.942 267.252 179.104 272.688 175.429C278.175 171.753 282.369 166.344 285.268 159.2C288.218 152.056 289.694 143.307 289.694 132.954ZM486.773 53.4384V212.469H454.16L390.874 120.685H389.864V212.469H351.427V53.4384H384.506L447.093 145.067H448.413V53.4384H486.773ZM505.74 84.6544V53.4384H640.154V84.6544H591.933V212.469H554.039V84.6544H505.74ZM658.927 212.469V53.4384H724.62C736.526 53.4384 746.802 55.5868 755.447 59.8835C764.144 64.1285 770.848 70.2371 775.559 78.2093C780.27 86.1297 782.625 95.5256 782.625 106.397C782.625 117.423 780.218 126.793 775.404 134.507C770.589 142.168 763.756 148.018 754.904 152.056C746.052 156.042 735.569 158.035 723.455 158.035H681.911V127.751H716.311C722.109 127.751 726.949 127 730.832 125.499C734.766 123.946 737.743 121.616 739.762 118.51C741.781 115.353 742.79 111.315 742.79 106.397C742.79 101.479 741.781 97.4151 739.762 94.2055C737.743 90.9441 734.766 88.5111 730.832 86.9063C726.898 85.2497 722.057 84.4214 716.311 84.4214H697.364V212.469H658.927ZM748.459 139.787L788.061 212.469H746.129L707.304 139.787H748.459ZM953.808 132.954C953.808 150.451 950.443 165.283 943.714 177.448C936.984 189.613 927.873 198.854 916.38 205.17C904.94 211.485 892.101 214.643 877.865 214.643C863.577 214.643 850.713 211.459 839.272 205.092C827.832 198.724 818.746 189.484 812.017 177.37C805.339 165.205 802 150.399 802 132.954C802 115.456 805.339 100.625 812.017 88.4593C818.746 76.2939 827.832 67.0534 839.272 60.7377C850.713 54.422 863.577 51.2642 877.865 51.2642C892.101 51.2642 904.94 54.422 916.38 60.7377C927.873 67.0534 936.984 76.2939 943.714 88.4593C950.443 100.625 953.808 115.456 953.808 132.954ZM914.517 132.954C914.517 122.6 913.041 113.851 910.09 106.707C907.191 99.5634 902.998 94.1537 897.511 90.4782C892.075 86.8027 885.527 84.965 877.865 84.965C870.255 84.965 863.707 86.8027 858.219 90.4782C852.732 94.1537 848.513 99.5634 845.562 106.707C842.663 113.851 841.214 122.6 841.214 132.954C841.214 143.307 842.663 152.056 845.562 159.2C848.513 166.344 852.732 171.753 858.219 175.429C863.707 179.104 870.255 180.942 877.865 180.942C885.527 180.942 892.075 179.104 897.511 175.429C902.998 171.753 907.191 166.344 910.09 159.2C913.041 152.056 914.517 143.307 914.517 132.954ZM976.249 212.469V53.4384H1014.69V181.253H1080.85V212.469H976.249ZM1100.74 212.469V53.4384H1139.18V181.253H1205.34V212.469H1100.74ZM1225.24 212.469V53.4384H1336.13V84.6544H1263.68V117.268H1330.46V148.562H1263.68V181.253H1336.13V212.469H1225.24ZM1360.2 212.469V53.4384H1425.89C1437.8 53.4384 1448.07 55.5868 1456.72 59.8835C1465.42 64.1285 1472.12 70.2371 1476.83 78.2093C1481.54 86.1297 1483.9 95.5256 1483.9 106.397C1483.9 117.423 1481.49 126.793 1476.67 134.507C1471.86 142.168 1465.03 148.018 1456.17 152.056C1447.32 156.042 1436.84 158.035 1424.73 158.035H1383.18V127.751H1417.58C1423.38 127.751 1428.22 127 1432.1 125.499C1436.04 123.946 1439.01 121.616 1441.03 118.51C1443.05 115.353 1444.06 111.315 1444.06 106.397C1444.06 101.479 1443.05 97.4151 1441.03 94.2055C1439.01 90.9441 1436.04 88.5111 1432.1 86.9063C1428.17 85.2497 1423.33 84.4214 1417.58 84.4214H1398.63V212.469H1360.2ZM1449.73 139.787L1489.33 212.469H1447.4L1408.57 139.787H1449.73Z" fill="#252525"/>
<path d="M108.383 328.85C97.0334 328.85 88.1587 325.735 81.7587 319.506C75.4441 313.191 72.2867 304.487 72.2867 293.394V270.994C72.2867 259.901 75.4441 251.239 81.7587 245.01C88.1587 238.695 97.0334 235.538 108.383 235.538C119.732 235.538 128.607 238.653 135.007 244.882C141.407 251.111 144.607 259.815 144.607 270.994H134.111C134.111 262.717 131.849 256.274 127.327 251.666C122.804 247.058 116.489 244.754 108.383 244.754C100.361 244.754 94.0894 247.058 89.5667 251.666C85.0441 256.274 82.7827 262.717 82.7827 270.994V293.394C82.7827 301.586 85.0441 307.986 89.5667 312.594C94.0894 317.202 100.361 319.549 108.383 319.634C116.489 319.634 122.804 317.33 127.327 312.722C131.849 308.114 134.111 301.671 134.111 293.394H144.607C144.607 304.573 141.407 313.277 135.007 319.506C128.607 325.735 119.732 328.85 108.383 328.85ZM190.883 328.85C179.533 328.85 170.659 325.735 164.259 319.506C157.944 313.191 154.787 304.487 154.787 293.394V270.994C154.787 259.901 157.944 251.239 164.259 245.01C170.659 238.695 179.533 235.538 190.883 235.538C202.232 235.538 211.107 238.653 217.507 244.882C223.907 251.111 227.107 259.815 227.107 270.994V293.394C227.107 304.573 223.907 313.277 217.507 319.506C211.107 325.735 202.232 328.85 190.883 328.85ZM165.283 293.394C165.283 301.586 167.544 307.986 172.067 312.594C176.589 317.202 182.861 319.506 190.883 319.506C198.989 319.506 205.304 317.245 209.827 312.722C214.349 308.114 216.611 301.671 216.611 293.394V270.994C216.611 262.717 214.349 256.274 209.827 251.666C205.304 247.058 198.989 244.754 190.883 244.754C182.861 244.754 176.589 247.058 172.067 251.666C167.544 256.274 165.283 262.717 165.283 270.994V293.394ZM237.287 271.378C237.287 260.029 240.487 251.197 246.887 244.882C253.287 238.482 262.204 235.282 273.639 235.282C285.073 235.282 293.991 238.482 300.391 244.882C306.791 251.197 309.991 260.029 309.991 271.378V326.802H299.623V271.378C299.623 263.101 297.319 256.658 292.711 252.05C288.103 247.357 281.745 245.01 273.639 245.01C265.532 245.01 259.175 247.357 254.567 252.05C250.044 256.658 247.783 263.101 247.783 271.378V326.802H237.287V271.378ZM382.495 237.202V245.394H330.655V277.906H378.655V286.098H330.655V326.802H320.287V237.202H382.495ZM403.283 237.202V326.802H392.787V237.202H403.283ZM449.633 328.85C438.283 328.85 429.409 325.735 423.009 319.506C416.694 313.191 413.537 304.487 413.537 293.394V270.994C413.537 259.901 416.694 251.239 423.009 245.01C429.409 238.695 438.283 235.538 449.633 235.538C460.982 235.538 469.857 238.653 476.257 244.882C482.657 251.111 485.857 259.815 485.857 270.994H475.361C475.361 262.717 473.099 256.274 468.577 251.666C464.054 247.058 457.739 244.754 449.633 244.754C441.611 244.754 435.339 247.058 430.817 251.666C426.294 256.274 424.033 262.717 424.033 270.994V293.394C424.033 301.586 426.294 307.986 430.817 312.594C435.339 317.202 441.611 319.549 449.633 319.634C457.91 319.634 464.097 317.373 468.193 312.85C472.374 308.242 474.635 301.287 474.977 291.986H457.825V285.842H485.857C485.857 300.434 482.913 311.271 477.025 318.354C471.137 325.351 462.006 328.85 449.633 328.85ZM532.389 328.85C520.954 328.85 512.037 325.693 505.637 319.378C499.237 312.978 496.037 304.103 496.037 292.754V237.33H506.533V292.754C506.533 301.031 508.794 307.474 513.317 312.082C517.925 316.69 524.282 318.994 532.389 318.994C540.495 318.994 546.853 316.69 551.461 312.082C556.069 307.474 558.373 301.031 558.373 292.754V237.33H568.741V292.754C568.741 304.103 565.541 312.978 559.141 319.378C552.741 325.693 543.823 328.85 532.389 328.85ZM579.037 237.202H621.661C630.535 237.202 637.447 239.975 642.397 245.522C647.346 251.069 649.821 258.791 649.821 268.69C649.821 276.711 648.029 283.41 644.445 288.786C640.861 294.077 635.698 297.447 628.957 298.898L649.821 326.802H638.685L618.845 299.922H589.533V326.802H579.037V237.202ZM618.973 291.73C625.373 291.73 630.365 289.725 633.949 285.714C637.618 281.618 639.453 275.943 639.453 268.69C639.453 261.351 637.618 255.634 633.949 251.538C630.365 247.442 625.373 245.394 618.973 245.394H589.533V291.73H618.973ZM660.037 271.634C660.037 260.285 663.237 251.453 669.637 245.138C676.037 238.738 684.954 235.538 696.389 235.538C707.567 235.538 716.314 238.738 722.629 245.138C728.943 251.453 732.143 260.285 732.229 271.634V326.802H721.733V300.946H670.533V326.802H660.037V271.634ZM721.733 292.37V271.634C721.733 263.357 719.514 256.914 715.077 252.306C710.639 247.613 704.41 245.266 696.389 245.266C688.282 245.266 681.925 247.613 677.317 252.306C672.794 256.914 670.533 263.357 670.533 271.634V292.37H721.733ZM809.223 245.65H778.503V326.802H768.007V245.65H737.287V237.202H809.223V245.65ZM850.383 328.85C839.033 328.85 830.159 325.735 823.759 319.506C817.444 313.191 814.287 304.487 814.287 293.394V270.994C814.287 259.901 817.444 251.239 823.759 245.01C830.159 238.695 839.033 235.538 850.383 235.538C861.732 235.538 870.607 238.653 877.007 244.882C883.407 251.111 886.607 259.815 886.607 270.994V293.394C886.607 304.573 883.407 313.277 877.007 319.506C870.607 325.735 861.732 328.85 850.383 328.85ZM824.783 293.394C824.783 301.586 827.044 307.986 831.567 312.594C836.089 317.202 842.361 319.506 850.383 319.506C858.489 319.506 864.804 317.245 869.327 312.722C873.849 308.114 876.111 301.671 876.111 293.394V270.994C876.111 262.717 873.849 256.274 869.327 251.666C864.804 247.058 858.489 244.754 850.383 244.754C842.361 244.754 836.089 247.058 831.567 251.666C827.044 256.274 824.783 262.717 824.783 270.994V293.394ZM896.787 237.202H939.411C948.285 237.202 955.197 239.975 960.147 245.522C965.096 251.069 967.571 258.791 967.571 268.69C967.571 276.711 965.779 283.41 962.195 288.786C958.611 294.077 953.448 297.447 946.707 298.898L967.571 326.802H956.435L936.595 299.922H907.283V326.802H896.787V237.202ZM936.723 291.73C943.123 291.73 948.115 289.725 951.699 285.714C955.368 281.618 957.203 275.943 957.203 268.69C957.203 261.351 955.368 255.634 951.699 251.538C948.115 247.442 943.123 245.394 936.723 245.394H907.283V291.73H936.723Z" fill="#252525"/>
</svg>
